<svg xmlns="http://www.w3.org/2000/svg" viewBox="0 0 64 64"><rect width="64" height="64" fill="#111213"/><path d="M20.5734 28.4027L31.2876 32.0024L20.5734 35.6021L3.59972 35.3971L0 35.3521V63.9949H21.6133L22.1483 63.8199L43.0116 57.0404H64V6.95934H43.0116L22.1483 0.179869L21.6133 0.00488281H0V28.6476L20.5734 28.4027ZM21.1333 24.8379L3.55472 25.0479V21.4932H3.59972L20.5734 21.2882L41.3118 28.2577L41.8617 28.4427L41.3118 28.6276L36.8671 30.1225L21.1333 24.8329V24.8379ZM60.4403 53.4907H42.4467L21.0484 60.4452H3.55472V56.8904H21.6133L22.1483 56.7155L43.0116 49.936H60.4453V53.4907H60.4403ZM60.4403 35.5571V46.3813H42.4467L21.0484 53.3357H3.55472V38.9568L21.1333 39.1668L36.8671 33.8772L42.4467 32.0024H60.4403V35.5571ZM60.4403 24.8929H42.4467L21.1333 17.7285L3.55472 17.9385V3.55961H21.0484L42.4467 10.5141H60.4403V24.8929Z" fill="#FEED02"/></svg>